<svg width="154" height="102" viewBox="0 0 154 102" fill="none" xmlns="http://www.w3.org/2000/svg">
<path d="M70.1979 43.1924C70.52 43.8158 70.9407 44.3828 71.4438 44.8715C72.9283 46.075 74.7805 46.7317 76.6906 46.7317C78.6008 46.7317 80.453 46.075 81.9375 44.8715C82.563 44.2421 83.0552 43.4929 83.3845 42.6685C83.7139 41.8442 83.8736 40.9618 83.8542 40.0741V39.4265C81.5271 40.1525 79.1042 40.5245 76.6667 40.5299C72.0459 40.7508 67.5091 39.2368 63.9448 36.2843C62.4422 34.9254 61.251 33.2572 60.4528 31.394C59.6547 29.5309 59.2685 27.5169 59.3208 25.4903V23.5474H55.775L64.3761 14.9602L72.9531 23.5474H69.4552V24.1471C69.4236 25.0784 69.5838 26.0062 69.926 26.8728C70.2681 27.7394 70.7847 28.5263 71.4438 29.1843C72.8942 30.4672 74.7803 31.1453 76.7146 31.0792C78.6254 31.17 80.4972 30.5167 81.9375 29.2563C83.0346 28.1597 83.6983 26.7028 83.8063 25.1545L88.9573 30.2877L93.9886 25.2265V25.6102C93.9886 25.9221 93.9886 26.2099 93.9886 26.4977V41.2975C94.0452 43.3164 93.6583 45.323 92.8551 47.1758C92.052 49.0285 90.8522 50.682 89.3406 52.0195C85.6732 54.7604 81.2193 56.2412 76.6427 56.2412C72.0662 56.2412 67.6122 54.7604 63.9448 52.0195C61.404 49.7567 59.7979 46.6261 59.4406 43.2404L70.1979 43.1924Z" fill="#0069B4"/>
<path d="M93.9885 16.0636V17.9825H97.5344L88.9573 26.5937L80.3562 17.9825H83.8542V17.3109C83.8901 16.3791 83.7319 15.4499 83.3895 14.5827C83.0472 13.7154 82.5282 12.9291 81.8656 12.2737C80.4267 10.969 78.5347 10.2802 76.5948 10.3548C74.6881 10.2719 72.8238 10.9341 71.3958 12.2017C70.2731 13.2827 69.5974 14.7468 69.5031 16.3034L64.376 11.1463L59.3208 16.2075V15.8237C59.2726 13.8095 59.6635 11.809 60.4662 9.96143C61.2689 8.11386 62.4641 6.46371 63.9687 5.12575C67.633 2.37752 72.0882 0.89209 76.6667 0.89209C81.2451 0.89209 85.7003 2.37752 89.3646 5.12575C90.8678 6.48933 92.0591 8.16178 92.8572 10.0288C93.6552 11.8959 94.0411 13.9135 93.9885 15.9436" fill="#F39200"/>
<path d="M34.1885 66.2195C34.1885 65.6313 34.3627 65.0562 34.6892 64.567C35.0156 64.0779 35.4796 63.6967 36.0225 63.4716C36.5653 63.2465 37.1626 63.1876 37.7389 63.3023C38.3152 63.4171 38.8446 63.7004 39.26 64.1163C39.6755 64.5323 39.9585 65.0623 40.0731 65.6393C40.1877 66.2162 40.1289 66.8143 39.904 67.3578C39.6792 67.9012 39.2984 68.3658 38.8099 68.6926C38.3213 69.0194 37.7469 69.1939 37.1593 69.1939C36.3714 69.1939 35.6158 68.8805 35.0587 68.3227C34.5015 67.7649 34.1885 67.0084 34.1885 66.2195ZM23.1916 83.4419V70.8729H29.1093V82.6743C29.0939 83.2145 29.1879 83.7522 29.3855 84.2551C29.5832 84.7581 29.8804 85.2158 30.2593 85.6007C31.102 86.3493 32.2002 86.7443 33.326 86.704C34.439 86.7638 35.5312 86.385 36.3687 85.6486C36.7412 85.2712 37.0314 84.8205 37.2211 84.3251C37.4108 83.8296 37.4958 83.3003 37.4708 82.7703V70.777H43.3885V83.4419C43.4117 84.6117 43.1818 85.7726 42.7144 86.845C42.2471 87.9174 41.5535 88.8758 40.6812 89.6544C38.5953 91.3269 35.9715 92.1798 33.302 92.0531C30.6224 92.2017 27.9835 91.3467 25.8989 89.6544C25.0236 88.8628 24.3287 87.8918 23.8616 86.8074C23.3944 85.723 23.166 84.5506 23.1916 83.3699V83.4419ZM26.4739 66.1475C26.4739 65.5582 26.6488 64.9823 26.9763 64.4927C27.3038 64.003 27.7692 63.6218 28.3135 63.3974C28.8577 63.173 29.4563 63.1156 30.0332 63.2323C30.6102 63.349 31.1394 63.6346 31.5539 64.053C31.9684 64.4714 32.2495 65.0036 32.3614 65.5821C32.4733 66.1606 32.4111 66.7594 32.1825 67.3025C31.954 67.8455 31.5695 68.3084 31.0778 68.6323C30.5861 68.9563 30.0094 69.1267 29.4208 69.1219C28.6371 69.1156 27.8876 68.7994 27.3356 68.2423C26.7836 67.6852 26.4739 66.9322 26.4739 66.1475Z" fill="#0069B4"/>
<path d="M52.325 83.4659H54.9365L61.0458 91.5254H68.0896L59.7521 80.7075L67.7542 71.1608H60.8062L54.9604 78.1649H52.325V63.2452H46.4073V91.5254H52.325V83.4659Z" fill="#0069B4"/>
<path d="M103.883 75.2145C105.025 75.2056 106.14 75.5581 107.07 76.2219C107.943 76.8649 108.556 77.8017 108.795 78.8604H98.8041C99.0908 77.7978 99.7337 76.8662 100.625 76.2219C101.582 75.5584 102.72 75.2066 103.883 75.2145ZM109.537 84.0175C108.967 84.8497 108.213 85.5391 107.333 86.0324C106.379 86.5553 105.307 86.8276 104.219 86.824C103.037 86.8255 101.88 86.4839 100.889 85.8405C99.9209 85.2229 99.2068 84.2781 98.876 83.178H114.569V81.427C114.634 79.9276 114.4 78.4301 113.882 77.0218C113.364 75.6134 112.571 74.3224 111.55 73.2236C110.523 72.2304 109.305 71.4551 107.972 70.944C106.638 70.4329 105.215 70.1967 103.787 70.2493C101.783 70.2318 99.8057 70.7184 98.0375 71.6645C96.393 72.5756 95.0203 73.9084 94.0604 75.5263C93.0559 77.2059 92.5413 79.1337 92.575 81.0912C92.527 83.1766 93.0756 85.2323 94.1562 87.0158C95.1512 88.6143 96.5806 89.8957 98.2771 90.7098C100.123 91.5749 102.14 92.0093 104.178 91.9802C106.216 91.9511 108.22 91.4593 110.041 90.5419C111.622 89.7303 112.967 88.5241 113.946 87.0399L109.537 84.0175Z" fill="#F39200"/>
<path d="M118.091 76.078V83.5618C118.074 84.8234 118.397 86.0662 119.025 87.1598C119.586 88.1038 120.336 88.9206 121.229 89.5584C122.05 90.1714 122.924 90.7093 123.841 91.1656L125.59 92.101L128.321 87.3037L126.716 86.4162C125.93 86.0212 125.236 85.4656 124.679 84.7851C124.193 84.0824 123.95 83.2404 123.984 82.3865V76.15H127.65V70.9448H123.984V63.3171L118.091 66.6273V70.9448H116.078V76.15L118.091 76.078Z" fill="#F39200"/>
<path d="M137.257 70.8729H131.364V91.5254H137.257V70.8729Z" fill="#F39200"/>
<path d="M146.17 82.0746C146.102 80.4026 146.667 78.7665 147.751 77.4932C148.744 76.4563 150.033 75.7525 151.441 75.4783L153.309 75.1185L152.207 70.1293L150.506 70.4172C149.579 70.608 148.689 70.9482 147.871 71.4246C146.968 71.9491 146.236 72.7238 145.763 73.6553V70.8729H140.276V91.5253H146.17V82.0746Z" fill="#F39200"/>
<path d="M0 83.4419V70.8729H5.86978V82.6743C5.85325 83.2168 5.949 83.7568 6.15104 84.2604C6.35307 84.764 6.65701 85.2203 7.04374 85.6007C7.88512 86.3514 8.98416 86.7468 10.1104 86.704C11.2157 86.7601 12.299 86.3813 13.1292 85.6486C13.5059 85.2732 13.8006 84.8235 13.9945 84.328C14.1883 83.8325 14.2771 83.302 14.2552 82.7703V70.777H20.2448V83.4419C20.2567 83.6656 20.2567 83.8898 20.2448 84.1135V92.221C20.2747 93.3952 20.0479 94.5618 19.5803 95.639C19.1126 96.7163 18.4154 97.6782 17.5375 98.4574C15.4024 100.052 12.81 100.913 10.1464 100.913C7.48274 100.913 4.89034 100.052 2.75519 98.4574C1.27508 97.1429 0.342903 95.3192 0.143744 93.3483H6.39687C6.58727 93.7157 6.83838 94.0482 7.13957 94.3317C7.99696 95.0373 9.07242 95.4231 10.1823 95.4231C11.2922 95.4231 12.3676 95.0373 13.225 94.3317C13.6018 93.9563 13.8964 93.5066 14.0903 93.0111C14.2841 92.5156 14.3729 91.9851 14.351 91.4534C12.9905 91.8612 11.5785 92.0712 10.1583 92.0771C7.47962 92.2188 4.84306 91.3645 2.75519 89.6784C1.87918 88.8886 1.18539 87.9174 0.722011 86.8321C0.258635 85.7469 0.0367948 84.5736 0.0718721 83.3939" fill="#0069B4"/>
<path d="M69.3594 83.4419V79.676C69.3311 78.502 69.5586 77.3359 70.0262 76.2589C70.4937 75.1818 71.19 74.2197 72.0667 73.4394C74.2018 71.8451 76.7942 70.9838 79.4578 70.9838C82.1214 70.9838 84.7139 71.8451 86.849 73.4394C87.7225 74.2313 88.4145 75.2029 88.8777 76.2876C89.3409 77.3724 89.5642 78.5446 89.5323 79.7239V83.6337C89.5443 83.8575 89.5443 84.0816 89.5323 84.3054V92.4128C89.5622 93.5871 89.3355 94.7537 88.8678 95.831C88.4002 96.9082 87.703 97.8701 86.825 98.6494C84.6899 100.244 82.0975 101.105 79.4339 101.105C76.7703 101.105 74.1779 100.244 72.0427 98.6494C70.5719 97.3276 69.6417 95.5077 69.4313 93.5402H75.6844C75.8748 93.9076 76.1259 94.2401 76.4271 94.5237C77.2845 95.2293 78.3599 95.615 79.4698 95.615C80.5797 95.615 81.6551 95.2293 82.5125 94.5237C82.8893 94.1483 83.184 93.6985 83.3778 93.203C83.5717 92.7074 83.6605 92.177 83.6386 91.6452C82.2784 92.0547 80.8662 92.2648 79.4459 92.2689C76.7671 92.4107 74.1306 91.5564 72.0427 89.8703C71.1705 89.0774 70.4793 88.1056 70.0162 87.0211C69.5532 85.9366 69.3291 84.7649 69.3594 83.5858V83.4419ZM75.2531 81.427V82.6503C75.2204 83.2197 75.308 83.7897 75.5103 84.3229C75.7126 84.8561 76.025 85.3405 76.4271 85.7446C77.2685 86.4953 78.3675 86.8907 79.4938 86.8479C80.5994 86.9066 81.6837 86.5275 82.5125 85.7925C82.8893 85.4171 83.184 84.9674 83.3778 84.4719C83.5717 83.9764 83.6605 83.4459 83.6386 82.9142V80.5155C83.6554 79.9751 83.5621 79.437 83.3643 78.9339C83.1666 78.4307 82.8687 77.9732 82.4886 77.5891C81.6522 76.8275 80.5518 76.423 79.4219 76.4618C78.3075 76.4211 77.2194 76.807 76.3792 77.5411C76.0089 77.9163 75.7182 78.3626 75.5247 78.8531C75.3312 79.3437 75.2388 79.8683 75.2531 80.3955V81.427Z" fill="#F39200"/>
<path d="M131.34 66.2195C131.34 65.6312 131.514 65.0561 131.84 64.567C132.167 64.0778 132.631 63.6966 133.174 63.4715C133.716 63.2464 134.314 63.1875 134.89 63.3023C135.466 63.417 135.996 63.7003 136.411 64.1163C136.827 64.5322 137.11 65.0623 137.224 65.6392C137.339 66.2162 137.28 66.8142 137.055 67.3577C136.83 67.9012 136.449 68.3657 135.961 68.6925C135.472 69.0193 134.898 69.1938 134.31 69.1938C133.92 69.1938 133.534 69.1169 133.174 68.9674C132.813 68.8179 132.486 68.5988 132.21 68.3226C131.934 68.0464 131.715 67.7186 131.566 67.3577C131.416 66.9968 131.34 66.6101 131.34 66.2195Z" fill="#F39200"/>
</svg>
